<svg xmlns="http://www.w3.org/2000/svg" xmlns:xlink="http://www.w3.org/1999/xlink" width="304" height="304" viewBox="0 0 304 304">
  <defs>
    <clipPath id="clip-path">
      <path id="Path_30" data-name="Path 30" d="M303.99,151.971a151.966,151.966,0,1,1,0-.01Z" transform="translate(0.01 0)" fill="none"/>
    </clipPath>
  </defs>
  <g id="Asset_1" data-name="Asset 1" transform="translate(7.81 10.29)">
    <g id="Layer_2" data-name="Layer 2" transform="translate(-7.81 -10.29)">
      <g id="Capa_1" data-name="Capa 1">
        <g id="Group_4" data-name="Group 4" clip-path="url(#clip-path)">
          <rect id="Rectangle_11" data-name="Rectangle 11" width="49.021" height="25.788" transform="translate(127.402 197.217)" fill="#ecb79e"/>
          <path id="Path_12" data-name="Path 12" d="M57.567,87.687a47.046,47.046,0,0,0,21.548-6.07A39.408,39.408,0,0,0,90.964,71.424a27.416,27.416,0,0,0,1.83-2.614v-.9H43.86V87.193A114.043,114.043,0,0,0,57.567,87.687Z" transform="translate(83.542 129.307)" fill="#d1d3d4"/>
          <path id="Path_13" data-name="Path 13" d="M88.488,19.13h0C57.182,20,33.31,32.9,33.31,77.212c0,26.311,2.468,34.094,10.135,64.122,5.314,20.764,33.542,31.742,44.316,32.439h1.423c10.745-.7,38.973-11.616,44.287-32.439,7.667-30.028,10.077-37.753,10.135-64.122C143.723,32.9,119.823,20,88.488,19.13Z" transform="translate(63.454 36.425)" fill="#ecb79e"/>
          <path id="Path_14" data-name="Path 14" d="M71.477,46.014,68.05,72.151C81.5,77.959,83.587,47.234,83.587,47.234,80.48,39.6,71.477,46.014,71.477,46.014Z" transform="translate(129.602 82.811)" fill="#ecb79e"/>
          <path id="Path_15" data-name="Path 15" d="M30.63,48.351s2.12,30.841,15.595,24.917L42.8,47.131S33.737,40.655,30.63,48.351Z" transform="translate(58.351 84.889)" fill="#ecb79e"/>
          <path id="Path_16" data-name="Path 16" d="M161.978,77.87l66.213,17.25s22.623,3.456,28.373,23.784l9.874,36.824H7.8L17.674,118.9c5.808-20.329,28.373-23.755,28.373-23.755L112.086,77.9Z" transform="translate(14.881 148.271)" fill="#ecb79e"/>
          <path id="Path_17" data-name="Path 17" d="M7.8,155.681l9.874-36.795C23.482,98.557,46.047,95.13,46.047,95.13l66.039-17.25h49.892l66.213,17.25s22.623,3.427,28.373,23.755l9.874,36.824" transform="translate(14.881 148.29)" fill="#fff"/>
          <path id="Path_18" data-name="Path 18" d="M59.538,66.5H51L38.89,85.609l10.832,12.2H60.816l10.832-12.2Z" transform="translate(96.731 156.505)" fill="#d83633"/>
          <path id="Path_19" data-name="Path 19" d="M69.11,105.811A34.152,34.152,0,0,1,60.833,76.77h-2L46.69,95.879l10.832,12.226H68.616l1.336-1.51Q69.511,106.224,69.11,105.811Z" transform="translate(88.931 146.177)" fill="#bcbec0"/>
          <path id="Path_20" data-name="Path 20" d="M69.155,62.34,44.47,75.234,60.733,99.745,90.267,81.972Z" transform="translate(107.356 148.584)" fill="#bcbec0"/>
          <path id="Path_21" data-name="Path 21" d="M69.155,62.34,44.47,75.234,61.023,96.492l27.647-16Z" transform="translate(107.356 148.584)" fill="#fff"/>
          <path id="Path_22" data-name="Path 22" d="M49.853,62.06,74.421,74.954,58.275,99.465,28.74,81.663Z" transform="translate(77.404 148.051)" fill="#bcbec0"/>
          <path id="Path_23" data-name="Path 23" d="M48.786,62.06,73.5,74.954,56.918,96.212l-27.618-16Z" transform="translate(78.471 148.051)" fill="#fff"/>
          <path id="Path_24" data-name="Path 24" d="M93.209,80.8,46.134,93.083s-22.681,3.456-28.46,23.785L7.8,153.662H266.438l-9.874-36.795c-5.808-20.329-28.373-23.755-28.373-23.755L178.822,78.94l-41.877,72.776Z" transform="translate(14.881 150.309)" fill="#002331"/>
          <path id="Path_25" data-name="Path 25" d="M46.444,77.28,40.52,103.359l11.471,18.586,10.687-18.586L57.538,77.28Z" transform="translate(99.835 177.031)" fill="#d83633"/>
          <path id="Path_26" data-name="Path 26" d="M44.071,69.29,21.71,75.1l12.6,4.879-7.783,8.857L71.6,142.154H89.114Z" transform="translate(64.019 161.817)" fill="#001221"/>
          <path id="Path_27" data-name="Path 27" d="M86.956,67.56l24.569,7.028L98.95,80.135l7.754,8.857-45.042,53.29H44.15Z" transform="translate(106.746 158.523)" fill="#001221"/>
          <path id="Path_28" data-name="Path 28" d="M43.864,112.485l4.908,29.476,4.066,2.643-4.066-41.383,6.97-16.5,1.684-13.591h.2c5-17.425,43.561-15.334,43.561-15.334,45.8.929,39.612,32.758,39.612,32.758l6.737,14.317-4.066,41.354,4.066-2.643L152.361,114c7.405-16.2,2.9-53.813,2.9-53.813s-5.576-15.334-17.425-17.105c0,0-5.547-25.643-41.993-21.026,0,0-33.92,7.841-44.984-11.762,0,0-.436,13.185,6.708,17.831,0,0-7.26-4.3-8.422-8.219,0,0,.523,8.248,5.024,11.094-2.236-1.307-10.484-6.621-13.446-14.288,0,0-2.381,12.488,7.26,19.254,0,0-13.214-7.493-12.691-16.06,0,0-4.095,17.425,7.783,21.752,0,0-4.356,3.224-14.695-8.916,0,0-2.9,20.706,11.616,22.826C40.205,55.565,34.4,67.326,43.864,112.485ZM54.784,31.316Z" transform="translate(53.626 19.593)" fill="#852a00"/>
          <path id="Path_29" data-name="Path 29" d="M34.529,58.161c1.016.348,3.659,2.439,5.314,3.195-.145-5.46-1.713-10.948-1.336-16.7A91.886,91.886,0,0,0,47.685,48.4a13.794,13.794,0,0,1-2.759-9.438c4.124-.552,7.464,2.9,11.326,2.759.348-2.9-.842-5.808-.639-8.712,6.07.929,12.371,3.572,18.47,4.53a49.193,49.193,0,0,1-3.311-7.551c7.667,1.51,15.363,3.921,23.087,5.314-.668-2.091-2.9-3.921-2.9-6.331,8.16-.871,17.134,6.244,24.859,8.1a9.816,9.816,0,0,1-3.746-4.3,90.782,90.782,0,0,1,15.595,9.932,15.623,15.623,0,0,1-1.975-1.946c2.265,1.742,4.559,3.572,6.65,5.518-2.381-5.808-10.019-7.812-11.616-14.056A13.852,13.852,0,0,0,124.411,36c-2.062-4.763-7.841-8.887-11.616-12.11a14.52,14.52,0,0,0-5.634-3.717,70.046,70.046,0,0,0,5.808,8.712c-3.6-2.352-7.405-6.912-11.616-7.7.436,2.7,3.311,5.227,4.182,7.783-5.46-2.381-10.28-10.774-16.35-11.355.813,1.481,2.062,3.107,2.9,4.53-3.107-1.975-8.916-5.14-12.72-4.53A16.147,16.147,0,0,0,82.853,25.4c-4.414-1.859-8.712-6.244-13.882-6.331,1.22,1.365,2.9,2.439,4.124,3.833-3.311,0-12.749-5.082-15.566-2.759-1.946,1.6.465,3.746.726,5.982-2.062-.987-9-5.634-11.442-3.572s2.672,5.314,3.165,7.493c-3.456-.668-6.476-3.078-10.193-2.759.465,1.684,2.062,2.9,3.049,4.5-2.265-.145-4.269-1.83-6.621-1.22a10.165,10.165,0,0,0,.174,3.746c-1.016-.378-2.265-.987-3.4-1.365a31.945,31.945,0,0,1,2.062,4.559h-.61a10.338,10.338,0,0,1,1.336,4.792c-.581-.436-1.51-.552-2.033-.9-.407,2.73.378,5.808.232,8.48-.174.174-.668,0-.9,0,.7.494.929,1.162,1.539,1.655l-.523.145a9,9,0,0,1,0,8.712,7.609,7.609,0,0,1,1.1-2.643" transform="translate(62.845 33.405)" fill="#963209"/>
        </g>
      </g>
    </g>
  </g>
</svg>
