<svg id="photo-camera-interface-symbol-for-button" xmlns="http://www.w3.org/2000/svg" width="24" height="19.542" viewBox="0 0 24 19.542">
  <path id="Path_6" data-name="Path 6" d="M15.871,14.75A3.87,3.87,0,1,1,12,10.88,3.875,3.875,0,0,1,15.871,14.75ZM24,9.254V20.248A2.654,2.654,0,0,1,21.346,22.9H2.654A2.654,2.654,0,0,1,0,20.248V9.254A2.654,2.654,0,0,1,2.654,6.6H5.918V5.682A2.322,2.322,0,0,1,8.24,3.36h7.52a2.322,2.322,0,0,1,2.322,2.322V6.6h3.264A2.655,2.655,0,0,1,24,9.254Zm-6.139,5.5A5.861,5.861,0,1,0,12,20.611,5.868,5.868,0,0,0,17.861,14.75Z" transform="translate(0 -3.36)" fill="#fff"/>
</svg>
