<svg xmlns="http://www.w3.org/2000/svg" width="25" height="25" viewBox="0 0 25 25">
    <path d="M17.651 19.14v1.954c0 2.154-1.752 3.906-3.906 3.906H3.931C1.777 25 .024 23.248.024 21.094V3.906C.024 1.752 1.777 0 3.931 0h9.814c2.154 0 3.906 1.752 3.906 3.906V5.86c0 .54-.437.977-.976.977-.54 0-.977-.437-.977-.977V3.906c0-1.077-.876-1.953-1.953-1.953H3.931c-1.077 0-1.953.876-1.953 1.953v17.188c0 1.077.876 1.953 1.953 1.953h9.814c1.077 0 1.953-.876 1.953-1.953V19.14c0-.54.437-.977.977-.977s.976.437.976.977zm6.658-8.317l-2.186-2.187c-.382-.382-1-.382-1.381 0-.382.381-.382 1 0 1.38l1.555 1.556H10.571c-.54 0-.976.437-.976.977s.437.976.976.976h11.726l-1.555 1.556c-.382.381-.382 1 0 1.381.19.19.44.286.69.286.25 0 .5-.095.69-.286l2.187-2.187c.952-.952.952-2.5 0-3.452z"/>
</svg>
