<svg xmlns="http://www.w3.org/2000/svg" width="24" height="28.8" viewBox="0 0 24 28.8">
  <g id="webcam_1_" data-name="webcam (1)" transform="translate(-42.667)">
    <g id="Group_3" data-name="Group 3" transform="translate(42.667)">
      <g id="Group_2" data-name="Group 2">
        <path id="Path_9" data-name="Path 9" d="M54.667,24.012a12.006,12.006,0,1,0-12-12.006A12.017,12.017,0,0,0,54.667,24.012Zm0-19.21a7.2,7.2,0,1,1-7.2,7.2A7.21,7.21,0,0,1,54.667,4.8Z" transform="translate(-42.667)" fill="#ffc107"/>
        <path id="Path_10" data-name="Path 10" d="M155.349,118.636a5.985,5.985,0,1,0-6.016-5.984A6.007,6.007,0,0,0,155.349,118.636Zm0-9.575a.6.6,0,1,1,0,1.2,2.4,2.4,0,0,0-2.406,2.394.6.6,0,0,1-1.2,0A3.6,3.6,0,0,1,155.349,109.061Z" transform="translate(-143.349 -100.656)" fill="#ffc107"/>
        <path id="Path_11" data-name="Path 11" d="M83.054,404.589a.6.6,0,0,0-.758-.061,13.172,13.172,0,0,1-14.984,0,.6.6,0,0,0-.758.061L64.7,406.371a2.374,2.374,0,0,0-.7,1.693,2.4,2.4,0,0,0,2.4,2.394,14.123,14.123,0,0,0,3.626-.543,17.769,17.769,0,0,1,9.552,0,14.123,14.123,0,0,0,3.626.543,2.392,2.392,0,0,0,1.69-4.094Z" transform="translate(-62.803 -381.657)" fill="#ffc107"/>
      </g>
    </g>
  </g>
</svg>
